{"title":"Inglourious Basterds-720p MP4 AAC BRRip 2009-CC","uid":7118148,"size":2619468535,"categoryP":"video","categoryS":"hd___movies","magnet":"?xt=urn:btih:87770c671580f94c829de8e00217308c7bfed21c&amp;dn=Inglourious+Basterds-720p+MP4+AAC+BRRip+2009-CC&amp;tr=udp%3A%2F%2Ftracker.openbittorrent.com%3A80&amp;tr=udp%3A%2F%2Fopen.demonii.com%3A1337&amp;tr=udp%3A%2F%2Ftracker.coppersurfer.tk%3A6969&amp;tr=udp%3A%2F%2Fexodus.desync.com%3A6969","seeders":1,"leechers":0,"uploader":"Caveman44","files":-1,"time":1332279230,"description":"Source: Inglourious.Basterds.720p.BluRay.x264-METiS\n\nSubs: English hardcoded when needed.\n\nSubs: Arabic, Bosnian, Brazilian, Bulgarian, Danish, Dutch, English, French, Greek, Hungarian, Icelandic, Italian, Persian, Polish, Portuguese, Romanian, Servian, Spanish and Swedish ( External).\n\nSample and Screens included.\n\nGeneral\nComplete name                    : Inglourious Basterds-720p MP4 AAC BRRip 2009-CC.mp4\nFormat                           : MPEG-4\nFormat profile                   : Base Media\nCodec ID                         : isom\nFile size                        : 2.41 GiB\nDuration                         : 2h 32mn\nOverall bit rate                 : 2 254 Kbps\nEncoded date                     : UTC 2012-03-17 08:51:05\n\nVideo\nID                               : 1\nFormat                           : AVC\nFormat/Info                      : Advanced Video Codec\nFormat profile                   : &lt;a class=&quot;__cf_email__&quot; href=&quot;/cdn-cgi/l/email-protection&quot; data-cfemail=&quot;a7efcec0cfe7eb948996&quot;&gt;[email&amp;#160;protected]&lt;/a&gt;&lt;script cf-hash='f9e31' type=&quot;text/javascript&quot;&gt;\n/* &lt;![CDATA[ */!function(){try{var t=&quot;currentScript&quot;in document?document.currentScript:function(){for(var t=document.getElementsByTagName(&quot;script&quot;),e=t.length;e--;)if(t[e].getAttribute(&quot;cf-hash&quot;))return t[e]}();if(t&amp;&amp;t.previousSibling){var e,r,n,i,c=t.previousSibling,a=c.getAttribute(&quot;data-cfemail&quot;);if(a){for(e=&quot;&quot;,r=parseInt(a.substr(0,2),16),n=2;a.length-n;n+=2)i=parseInt(a.substr(n,2),16)^r,e+=String.fromCharCode(i);e=document.createTextNode(e),c.parentNode.replaceChild(e,c)}}}catch(u){}}();/* ]]&gt; */&lt;/script&gt;\nFormat settings, CABAC           : Yes\nFormat settings, ReFrames        : 5 frames\nCodec ID                         : avc1\nCodec ID/Info                    : Advanced Video Coding\nDuration                         : 2h 32mn\nBit rate mode                    : Variable\nBit rate                         : 1 865 Kbps\nNominal bit rate                 : 1 878 Kbps\nMaximum bit rate                 : 55.3 Mbps\nWidth                            : 1 280 pixels\nHeight                           : 528 pixels\nDisplay aspect ratio             : 2.35:1\nFrame rate mode                  : Variable\nFrame rate                       : 23.976 fps\nMinimum frame rate               : 15.873 fps\nMaximum frame rate               : 24.390 fps\nResolution                       : 24 bits\nColorimetry                      : 4:2:0\nScan type                        : Progressive\nBits/(Pixel*Frame)               : 0.115\nStream size                      : 1.99 GiB (83%)\nWriting library                  : x264 core 112\n\n\nAudio\nID                               : 2\nFormat                           : AAC\nFormat/Info                      : Advanced Audio Codec\nFormat version                   : Version 4\nFormat profile                   : LC\nFormat settings, SBR             : No\nCodec ID                         : 40\nDuration                         : 2h 32mn\nBit rate mode                    : Variable\nBit rate                         : 384 Kbps\nMaximum bit rate                 : 802 Kbps\nChannel(s)                       : 6 channels\nChannel positions                : Front: L C R, Rear: L R, LFE\nSampling rate                    : 48.0 KHz\nResolution                       : 16 bits\nStream size                      : 420 MiB (17%)","torrent":{"xt":"urn:btih:87770c671580f94c829de8e00217308c7bfed21c","amp;dn":"Inglourious+Basterds-720p+MP4+AAC+BRRip+2009-CC","amp;tr":["udp%3A%2F%2Ftracker.openbittorrent.com%3A80","udp%3A%2F%2Fopen.demonii.com%3A1337","udp%3A%2F%2Ftracker.coppersurfer.tk%3A6969","udp%3A%2F%2Fexodus.desync.com%3A6969"],"infoHash":"87770c671580f94c829de8e00217308c7bfed21c","infoHashBuffer":{"type":"Buffer","data":[135,119,12,103,21,128,249,76,130,157,232,224,2,23,48,140,123,254,210,28]},"announce":[],"urlList":[]}}